<?xml version="1.0"?><svg data-name="Layer 2" id="Layer_2" viewBox="0 0 35 35" xmlns="http://www.w3.org/2000/svg" fill="white"><path d="M25.37,34.75H9.63A9.39,9.39,0,0,1,.25,25.37V9.63A9.39,9.39,0,0,1,9.63.25H25.37a9.39,9.39,0,0,1,9.38,9.38V25.37A9.39,9.39,0,0,1,25.37,34.75ZM9.63,2.75A6.89,6.89,0,0,0,2.75,9.63V25.37a6.89,6.89,0,0,0,6.88,6.88H25.37a6.89,6.89,0,0,0,6.88-6.88V9.63a6.89,6.89,0,0,0-6.88-6.88Z"/><rect height="10.96" rx="1.71" width="3.43" x="8.74" y="14.82" fill="white"/><path d="M10.46,9.22a1.72,1.72,0,1,0,1.71,1.71A1.72,1.72,0,0,0,10.46,9.22Z" fill="white"/><path d="M20,17.16a2.17,2.17,0,0,1,1.95.4,3.59,3.59,0,0,1,.84,2.69v3.82a1.72,1.72,0,0,0,1.72,1.71h0a1.71,1.71,0,0,0,1.71-1.71v-5a5.9,5.9,0,0,0-.84-3l-.05-.06a4,4,0,0,0-3.19-1.51,3.84,3.84,0,0,0-3.47,1.7l-.46.67v-.4a1.71,1.71,0,0,0-1.71-1.71h0a1.71,1.71,0,0,0-1.71,1.71v7.54a1.71,1.71,0,0,0,1.71,1.71h0a1.7,1.7,0,0,0,1.71-1.71V19C18.88,17.3,20,17.17,20,17.16Z" fill="white"/></svg>